<svg width="512" height="512" viewBox="0 0 512 512" fill="none" xmlns="http://www.w3.org/2000/svg" xmlns:xlink="http://www.w3.org/1999/xlink" class=""><rect id="_r_9_" width="512" height="512" x="0" y="0" rx="128" fill="url(#_r_a_)" stroke="#FFFFFF" stroke-width="0" stroke-opacity="100%" paint-order="stroke"></rect><clipPath id="clip"><use xlink:href="#_r_9_"></use></clipPath><defs><radialGradient id="_r_a_" cx="50%" cy="50%" r="100%" fx="50%" fy="0%" gradientUnits="objectBoundingBox"><stop stop-color="#171717"></stop><stop offset="1" stop-color="#000000"></stop></radialGradient><radialGradient id="_r_b_" cx="0" cy="0" r="1" gradientUnits="userSpaceOnUse" gradientTransform="translate(256) rotate(90) scale(512)"><stop stop-color="white"></stop><stop offset="1" stop-color="white" stop-opacity="0"></stop></radialGradient></defs><svg xmlns="http://www.w3.org/2000/svg" width="352" height="352" viewBox="0 0 256 256" x="80" y="80" alignment-baseline="middle" style="color: rgb(230, 230, 230); width: 352px; height: 352px;"><path fill="currentColor" d="m96 73l-61.94 55L96 183a12 12 0 1 1-16 18L8 137a12 12 0 0 1 0-18l72-64a12 12 0 0 1 16 18m152 46l-72-64a12 12 0 1 0-16 18l61.91 55L160 183a12 12 0 1 0 16 18l72-64a12 12 0 0 0 0-18"></path></svg></svg>